<?xml version="1.0" encoding="UTF-8"?>
<svg width="132px" height="125px" viewBox="0 0 132 125" version="1.1" xmlns="http://www.w3.org/2000/svg" xmlns:xlink="http://www.w3.org/1999/xlink">
    <title>Group</title>
    <defs>
        <polygon id="path-1" points="0 746 465 746 465 0 0 0"></polygon>
    </defs>
    <g id="Symbols" stroke="none" stroke-width="1" fill="none" fill-rule="evenodd">
        <g id="Brochure-/-4-2" transform="translate(-166.000000, -47.000000)">
            <rect id="BG" stroke="#000000" fill="#FFFFFF" x="0.5" y="0.5" width="464" height="745"></rect>
            <g id="644">
                <mask id="mask-2" fill="white">
                    <use xlink:href="#path-1"></use>
                </mask>
                <g id="Clip-31"></g>
                <g id="Group" mask="url(#mask-2)">
                    <g transform="translate(167.000000, 47.890000)">
                        <path d="M130,124 L130,15.010821 C125.82814,14.87984 121.965972,14.1469464 118.87404,13.2390782 C115.174711,12.1512361 106.945877,7.46191682 102.373414,4.20438969 C98.683076,1.57577126 94.7100185,-7.10542736e-15 90.4432525,-7.10542736e-15 L39.5567475,-7.10542736e-15 C35.2899815,-7.10542736e-15 31.316924,1.57577126 27.6265859,4.20438969 C23.0541232,7.46191682 14.8252888,12.1512361 11.1259596,13.2390782 C8.03402777,14.1469464 4.17186023,14.87984 0,15.010821 L0,124" id="Stroke-42" stroke="#000000" stroke-width="1" fill="none"></path>
                        <path d="M76.4229,101.9085 C76.4229,107.1085 72.2069,111.3235 67.0079,111.3235 C61.8079,111.3235 57.5929,107.1085 57.5929,101.9085 C57.5929,96.7095 61.8079,92.4945 67.0079,92.4945 C72.2069,92.4945 76.4229,96.7095 76.4229,101.9085" id="Fill-43" stroke="none" fill="#000000" fill-rule="evenodd"></path>
                        <path d="M35.1299,43.9144 C32.2089,44.5394 28.7849,48.2044 28.4419,53.1764 C28.4179,53.5094 28.3939,54.0824 28.4169,54.5114 C28.5269,56.5314 28.6509,57.7644 29.3559,59.5314 C29.8499,60.7724 30.4369,61.5374 30.9459,61.7874 C31.0459,61.8364 31.1519,61.8564 31.2929,61.8564 C31.4869,61.8554 31.6409,61.7824 31.7609,61.6644 C32.0989,61.3324 31.8859,60.8894 31.7789,60.4974 C31.2819,58.6644 31.0149,56.4924 31.7679,54.6924 C32.4019,53.1804 33.9169,52.1744 35.5189,51.9614 C37.3469,51.7184 39.1699,52.5664 40.4799,53.8014 C41.8249,55.0694 44.0399,57.7284 44.1879,61.8764 C44.3089,65.2734 43.4969,67.2504 42.5399,68.8044 C41.2039,70.9754 38.7339,71.8794 36.6809,71.8724 C33.5679,71.8624 31.2959,69.1984 30.4809,68.1314 C29.8299,67.2794 28.7849,65.5864 28.1219,63.8654 C27.2129,61.5074 26.7059,60.0594 26.3669,57.6164 C26.2069,56.4564 26.1349,55.2874 26.1089,54.1164 C26.0189,50.2394 26.2929,46.3994 27.6929,42.3944 C28.8619,39.0504 30.2139,35.4084 33.6719,33.8004 C35.1449,33.1154 37.3369,33.1054 37.4819,35.2044 C37.4989,35.4644 37.4889,35.7304 37.4129,35.9814 C37.3589,36.1604 37.2699,36.3244 37.1559,36.4724 C37.0549,36.6054 36.9389,36.7264 36.8339,36.8554 C36.7229,36.9934 36.6299,37.1444 36.5709,37.3124 C36.4619,37.6294 36.4949,38.0384 36.5319,38.1864 C36.5589,38.2954 36.5969,38.4004 36.6469,38.5014 C37.4949,40.2044 39.6599,40.8094 41.4279,40.7434 C43.0289,40.6854 44.6769,40.0204 45.6959,38.7514 C46.4519,37.8084 47.0929,36.3154 46.9519,34.6394 C46.7449,32.1684 44.6609,29.7814 41.3379,28.9144 C41.0029,28.8274 40.6779,28.7644 40.3179,28.7204 C39.9819,28.6794 39.6439,28.6514 39.3049,28.6414 C38.9429,28.6294 38.5379,28.6194 38.2759,28.6194 C37.6499,28.6194 37.0199,28.6514 36.3989,28.7234 C34.6249,28.9274 33.3209,29.2784 31.4369,30.1164 C27.0039,32.0864 23.7679,35.9114 21.6219,40.1744 C18.9129,45.5564 17.5219,51.5924 17.6679,57.6194 C17.7399,60.6064 18.1899,63.5844 19.0209,66.4544 C19.4469,67.9324 19.9759,69.3814 20.6009,70.7864 C21.3889,72.5574 22.4549,74.2084 23.7559,75.6444 C25.8689,77.9774 29.0529,79.4674 32.0349,80.1294 C38.7309,81.6174 44.3799,76.8134 46.8989,70.9744 C48.2659,67.8064 49.0509,64.1064 49.0509,60.6474 C49.0509,51.6674 44.6789,41.8734 35.1299,43.9144" id="Fill-44" stroke="none" fill="#000000" fill-rule="evenodd"></path>
                        <path d="M82.2832,63.8411 C82.2832,63.3721 81.8842,63.2731 81.6452,63.2731 C81.6352,63.2731 77.1842,63.2671 77.0412,63.2671 C76.6722,63.2671 76.3732,62.9681 76.3732,62.5991 L76.3732,45.4121 C76.3762,44.8321 76.2252,43.9611 75.5752,43.7651 C74.9252,43.5681 74.3872,44.1291 74.0372,44.6021 C73.2232,45.6971 72.3832,46.7721 71.5272,47.8351 C70.2602,49.4141 68.9992,51.0011 67.6062,52.4741 C67.3702,52.7251 67.1302,52.9721 66.8872,53.2161 C66.6552,53.4481 66.4222,53.6801 66.1892,53.9111 C65.9992,54.1021 65.8092,54.2941 65.6212,54.4871 C65.4862,54.6241 65.3362,54.7561 65.2312,54.9191 C65.1442,55.0561 65.0912,55.2201 65.1172,55.3791 C65.1442,55.5481 65.2582,55.6911 65.3782,55.8131 C65.6622,56.1011 66.0062,56.3201 66.3142,56.5791 C66.5902,56.8121 66.8452,57.0631 67.0682,57.3461 C67.5012,57.8931 67.7262,58.5751 67.7322,59.2741 C67.7322,59.2741 67.7492,61.1821 67.7522,61.1931 L67.7522,62.5991 C67.7522,62.9681 67.4532,63.2671 67.0842,63.2671 C66.7632,63.2671 65.3492,63.2671 65.3492,63.2701 C62.8592,63.2651 57.4022,63.2561 55.3172,63.2731 C55.0342,63.2731 54.6782,63.0891 54.7692,62.6371 C54.8122,62.4251 55.1142,62.0851 55.4712,61.7631 C56.2742,61.0401 57.1782,60.1281 57.7572,59.5811 C58.8312,58.5671 59.4982,57.9461 60.4342,56.9621 C62.3472,54.9541 64.0642,52.7731 65.7892,50.6051 C68.7162,46.9261 71.0422,43.3621 72.6392,39.1631 C73.1262,37.8871 73.9232,35.5111 74.2672,33.9551 C74.5452,32.7051 74.5152,31.5411 74.4722,30.8711 C74.4422,30.3931 74.1812,29.8901 73.5992,29.895063 C73.1332,29.8981 72.5612,30.2321 71.9212,30.5791 C71.6192,30.7431 69.1622,32.0021 68.3562,32.2501 C66.9962,32.6691 65.8642,33.0651 63.9702,33.1671 C61.6602,33.2921 60.7772,33.7571 60.8012,35.2231 C60.8272,36.8621 60.9042,38.3231 60.6982,39.9491 C59.8412,46.7081 58.5572,51.0161 55.3592,55.6811 C54.7822,56.5241 53.9942,57.4181 53.2562,58.3241 C52.5082,59.2441 51.7192,60.1291 50.9172,61.0031 C50.4772,61.4831 50.0362,61.9601 49.5952,62.4401 C48.9382,63.1551 48.2192,63.8501 48.4182,64.9171 C48.7352,66.6151 50.9772,66.9481 53.1502,66.9481 C56.3282,66.9481 63.7562,66.9651 64.6572,66.9481 C64.8842,66.9441 65.1172,66.9401 65.3492,66.9561 L67.0842,66.9561 C67.4532,66.9561 67.7522,67.2551 67.7522,67.6241 L67.7522,72.7181 C67.7522,75.2551 65.7742,77.0271 65.3542,77.3891 C64.9332,77.7511 64.1632,78.1581 63.6842,78.4121 C63.2062,78.6671 63.0282,78.7431 62.7522,78.8941 C62.4502,79.0601 62.0942,79.3081 62.0642,79.6851 C62.0342,80.0631 62.3512,80.4031 62.7302,80.4031 L69.9212,80.4031 C70.5022,80.4021 71.1002,80.4021 71.6992,80.4021 C72.5432,80.4021 73.3862,80.4021 74.2042,80.4031 L81.3942,80.4031 C81.7732,80.4031 82.0912,80.0631 82.0612,79.6851 C82.0312,79.3081 81.6752,79.0601 81.3732,78.8951 C81.0962,78.7431 80.9192,78.6671 80.4402,78.4121 C79.9622,78.1581 79.1912,77.7511 78.7702,77.3891 C78.3502,77.0271 76.3732,75.2551 76.3732,72.7191 L76.3732,67.6241 C76.3732,67.2551 76.6722,66.9561 77.0412,66.9561 C77.3612,66.9561 78.7752,66.9561 78.7752,66.9481 L81.6722,66.9481 C82.0072,66.9381 82.2762,66.6681 82.2832,66.3321 C82.2892,66.0621 82.2832,64.8521 82.2832,63.8411" id="Fill-45" stroke="none" fill="#000000" fill-rule="evenodd"></path>
                        <path d="M114.3398,63.8411 C114.3398,63.3721 113.9408,63.2731 113.7018,63.2731 C113.6918,63.2731 109.2408,63.2671 109.0978,63.2671 C108.7288,63.2671 108.4288,62.9681 108.4288,62.5991 L108.4298,45.4121 C108.4318,44.8321 108.2818,43.9611 107.6318,43.7651 C106.9818,43.5681 106.4438,44.1291 106.0938,44.6021 C105.2788,45.6971 104.4398,46.7721 103.5838,47.8351 C102.3168,49.4141 101.0548,51.0011 99.6628,52.4741 C99.4258,52.7251 99.1868,52.9721 98.9438,53.2161 C98.7108,53.4481 98.4778,53.6801 98.2458,53.9111 C98.0558,54.1021 97.8658,54.2941 97.6778,54.4871 C97.5428,54.6241 97.3928,54.7561 97.2878,54.9191 C97.2008,55.0561 97.1478,55.2201 97.1738,55.3791 C97.2008,55.5481 97.3148,55.6911 97.4348,55.8131 C97.7188,56.1011 98.0628,56.3201 98.3708,56.5791 C98.6468,56.8121 98.9018,57.0631 99.1248,57.3461 C99.5578,57.8931 99.7828,58.5751 99.7888,59.2741 C99.7888,59.2741 99.8058,61.1821 99.8088,61.1931 L99.8088,62.5991 C99.8088,62.9681 99.5098,63.2671 99.1408,63.2671 C98.8198,63.2671 97.4058,63.2671 97.4058,63.2701 C94.9158,63.2651 89.4588,63.2561 87.3738,63.2731 C87.0908,63.2731 86.7348,63.0891 86.8258,62.6371 C86.8688,62.4251 87.1708,62.0851 87.5278,61.7631 C88.3308,61.0401 89.2348,60.1281 89.8128,59.5811 C90.8878,58.5671 91.5538,57.9461 92.4908,56.9621 C94.4028,54.9541 96.1208,52.7731 97.8458,50.6051 C100.7728,46.9261 103.0988,43.3621 104.6958,39.1631 C105.1828,37.8871 105.9788,35.5111 106.3238,33.9551 C106.6018,32.7051 106.5718,31.5411 106.5288,30.8711 C106.4988,30.3931 106.2378,29.8901 105.6548,29.895063 C105.1898,29.8981 104.6178,30.2321 103.9768,30.5791 C103.6758,30.7431 101.2188,32.0021 100.4128,32.2501 C99.0528,32.6691 97.9208,33.0651 96.0268,33.1671 C93.7168,33.2921 92.8328,33.7571 92.8578,35.2231 C92.8838,36.8621 92.9608,38.3231 92.7548,39.9491 C91.8978,46.7081 90.6138,51.0161 87.4158,55.6811 C86.8378,56.5241 86.0508,57.4181 85.3128,58.3241 C84.5638,59.2441 83.7748,60.1291 82.9738,61.0031 C82.5338,61.4831 82.0918,61.9601 81.6518,62.4401 C80.9948,63.1551 80.2758,63.8501 80.4748,64.9171 C80.7908,66.6151 83.0338,66.9481 85.2068,66.9481 C88.3848,66.9481 95.8128,66.9651 96.7138,66.9481 C96.9398,66.9441 97.1738,66.9401 97.4058,66.9561 L99.1408,66.9561 C99.5098,66.9561 99.8088,67.2551 99.8088,67.6241 L99.8088,72.7181 C99.8088,75.2551 97.8308,77.0271 97.4108,77.3891 C96.9898,77.7511 96.2198,78.1581 95.7408,78.4121 C95.2628,78.6671 95.0848,78.7431 94.8088,78.8941 C94.5058,79.0601 94.1508,79.3081 94.1198,79.6851 C94.0908,80.0631 94.4078,80.4031 94.7868,80.4031 L101.9768,80.4031 C102.5588,80.4021 103.1568,80.4021 103.7558,80.4021 C104.5998,80.4021 105.4428,80.4021 106.2608,80.4031 L113.4508,80.4031 C113.8298,80.4031 114.1478,80.0631 114.1168,79.6851 C114.0878,79.3081 113.7318,79.0601 113.4288,78.8951 C113.1528,78.7431 112.9758,78.6671 112.4968,78.4121 C112.0188,78.1581 111.2468,77.7511 110.8268,77.3891 C110.4068,77.0271 108.4288,75.2551 108.4288,72.7191 L108.4288,67.6241 C108.4288,67.2551 108.7288,66.9561 109.0968,66.9561 C109.4178,66.9561 110.8318,66.9561 110.8318,66.9481 L113.7288,66.9481 C114.0638,66.9381 114.3328,66.6681 114.3398,66.3321 C114.3458,66.0621 114.3398,64.8521 114.3398,63.8411" id="Fill-46" stroke="none" fill="#000000" fill-rule="evenodd"></path>
                    </g>
                </g>
                <rect id="Rectangle" fill="#000000" mask="url(#mask-2)" x="1" y="171.89" width="465" height="1"></rect>
            </g>
        </g>
    </g>
</svg>