<?xml version="1.0" encoding="UTF-8"?>
<svg width="306px" height="256px" viewBox="0 0 306 256" version="1.1" xmlns="http://www.w3.org/2000/svg" xmlns:xlink="http://www.w3.org/1999/xlink">
    <!-- Generator: Sketch 54.1 (76490) - https://sketchapp.com -->
    <title>logo_644_black</title>
    <desc>Created with Sketch.</desc>
    <g id="Symbols" stroke="none" stroke-width="1" fill="none" fill-rule="evenodd">
        <g id="BI-/-Logo" fill="#000000">
            <path d="M182,227 C182,243.016553 169.016186,256 153,256 C136.983814,256 124,243.016553 124,227 C124,210.982117 136.983814,198 153,198 C169.016186,198 182,210.982117 182,227 Z M298.012849,107.740823 C298.752896,107.740823 299.992559,108.050859 299.992559,109.507759 C299.992559,112.652409 300.009302,116.413103 299.992559,117.254629 C299.971797,118.29882 299.13464,119.13699 298.093886,119.169202 L289.106837,119.169202 C289.106837,119.194031 284.718125,119.194702 283.723582,119.194702 C282.578351,119.194702 281.650781,120.124139 281.650781,121.272345 L281.650781,137.109676 C281.650781,144.994788 287.788817,150.5043 289.092773,151.631032 C290.397399,152.755751 292.788989,154.023408 294.273101,154.813933 C295.757213,155.602444 296.310407,155.841346 297.165646,156.311768 C298.105272,156.826481 299.20898,157.595531 299.301402,158.767897 C299.394494,159.944288 298.409327,160.999886 297.233958,160.999886 L274.924726,160.999886 C272.383787,160.998544 269.769847,160.998544 267.15055,160.998544 C265.292061,160.998544 263.434912,160.999215 261.631341,160.999215 L239.320769,160.999215 C238.14607,160.999215 237.160234,159.943617 237.253326,158.766554 C237.345748,157.595531 238.450125,156.826481 239.39042,156.311097 C240.24566,155.841346 240.797514,155.602444 242.282296,154.813933 C243.765738,154.022737 246.158668,152.75508 247.462624,151.630361 C248.76725,150.5043 254.903946,144.994788 254.903946,137.109005 L254.903946,121.272345 C254.903946,120.124139 253.976376,119.194702 252.830475,119.194702 C251.836602,119.194702 247.449229,119.194031 247.449229,119.194031 C246.727265,119.14303 246.001952,119.15578 245.302089,119.169202 C242.503975,119.222216 219.457374,119.169202 209.596333,119.169202 C206.318696,119.169202 202.995517,118.919562 200.32733,118.061931 C200.018586,118.69945 199.378329,119.145714 198.627566,119.169202 L189.640517,119.169202 C189.640517,119.194031 185.252474,119.194702 184.256592,119.194702 C183.112031,119.194702 182.185131,120.124139 182.185131,121.272345 L182.185131,137.109676 C182.185131,144.994788 188.322497,150.5043 189.626453,151.631032 C190.929739,152.755751 193.322669,154.023408 194.806111,154.813933 C196.290893,155.602444 196.843417,155.841346 197.698657,156.311768 C198.638951,156.826481 199.743329,157.595531 199.835081,158.767897 C199.928173,159.944288 198.942337,160.999886 197.767638,160.999886 L175.457736,160.999886 C172.918136,160.998544 170.302857,160.998544 167.68289,160.998544 C165.825741,160.998544 163.967922,160.999215 162.164351,160.999215 L139.855118,160.999215 C138.67975,160.999215 137.693913,159.943617 137.787675,158.766554 C137.879427,157.595531 138.984475,156.826481 139.92343,156.311097 C140.77867,155.841346 141.330524,155.602444 142.815976,154.813933 C144.299418,154.022737 146.691678,152.75508 147.996974,151.630361 C149.30026,150.5043 155.437626,144.994788 155.437626,137.109005 L155.437626,121.272345 C155.437626,120.124139 154.510056,119.194702 153.364155,119.194702 C152.369613,119.194702 147.98224,119.194031 147.98224,119.194031 C147.260275,119.14303 146.535632,119.15578 145.835099,119.169202 C143.036985,119.222216 119.990385,119.169202 110.130013,119.169202 C104.109179,119.169202 97.9269414,118.335057 95.9700029,114.396528 C94.8334784,120.392568 93.0553567,126.288619 90.7314085,131.687404 C82.9163795,149.84195 65.3869792,164.776016 44.6120883,160.150308 C35.3591581,158.090784 25.478695,153.459707 18.9240897,146.206746 C14.8876529,141.739411 11.5765291,136.607042 9.13336977,131.104241 C7.19384417,126.732869 5.5550254,122.227954 4.22829881,117.633786 C1.65186407,108.710524 0.257495183,99.4517251 0.0324673507,90.1660835 C-0.421606668,71.4263608 3.89812404,52.6591241 12.3031815,35.9259106 C18.9602548,22.6735545 29.0014521,10.7801219 42.7535995,4.65590675 C48.6023139,2.05147116 52.650136,0.958292713 58.1505931,0.323457344 C60.0780637,0.0999899259 62.0336627,0 63.973858,0 C64.7882444,0 66.0446498,0.0322115198 67.1684496,0.0677784062 C68.2199189,0.100660999 69.269379,0.184545165 70.3134814,0.312720171 C71.4272352,0.448948057 72.4365118,0.647585762 73.4759261,0.91937046 C83.789032,3.61574309 90.2559033,11.036472 90.8975005,18.7175773 C91.3321525,23.9291327 89.3477553,28.5702759 86.9990273,31.5021953 C83.8372523,35.4507907 78.7245664,37.512328 73.7558715,37.6968731 C68.2721575,37.8988662 61.5548088,36.020532 58.9194382,30.7250923 C58.7654013,30.4130432 58.6481993,30.0835462 58.5644836,29.7466674 C58.4499605,29.28564 58.3488319,28.0146272 58.6883828,27.0294915 C58.8692088,26.5060543 59.1578606,26.0376451 59.5014298,25.6081582 C59.8262468,25.2041721 60.1872289,24.8297131 60.5013303,24.4170031 C60.8529363,23.9559757 61.1322119,23.4473021 61.2996433,22.8903112 C61.5353868,22.1098529 61.5655244,21.2810774 61.5099372,20.4744472 C61.0618907,13.9482591 54.261496,13.9791285 49.6899485,16.1104574 C38.9622823,21.1092826 34.7657812,32.4323029 31.1378771,42.8319263 C26.7940362,55.2810076 25.9448241,67.2200731 26.2214208,79.2745633 C26.3044668,82.9151362 26.5274854,86.5483272 27.0264311,90.1560174 C28.0758912,97.7505542 29.6497466,102.251443 32.4706312,109.584261 C34.5280285,114.9354 37.7695009,120.198628 39.7873844,122.846683 C42.317608,126.165812 49.3671407,134.448199 59.0265943,134.479069 C65.3970251,134.49853 73.0620356,131.687404 77.2083074,124.939761 C80.1765317,120.109375 82.6940305,113.962344 82.3183144,103.401663 C81.8615615,90.5063176 74.9895062,82.236681 70.812427,78.292112 C66.7485315,74.4549147 61.0920284,71.8175965 55.4194517,72.5745672 C50.452766,73.2362455 45.7499522,76.3621051 43.780289,81.0663291 C41.4442857,86.6624096 42.2754153,93.4140784 43.819133,99.1135041 C44.1486381,100.331502 44.8076482,101.707874 43.7601972,102.741327 C43.3864903,103.109746 42.9129942,103.335898 42.3082319,103.338582 C41.8735799,103.341266 41.5434051,103.275501 41.2333222,103.123838 C39.6514301,102.346735 37.8297762,99.9684516 36.2967741,96.1097799 C34.1134683,90.6150315 33.7263669,86.7818607 33.3854765,80.5019565 C33.3118067,79.1671916 33.3901646,77.3854919 33.4618252,76.3500258 C34.5280285,60.8925227 45.149878,49.4963555 54.215285,47.5549403 C83.8419404,41.2085999 97.4105829,71.6605654 97.4105829,99.5799001 C97.4105829,102.209836 97.2619038,104.884735 96.9799492,107.569028 C97.6195373,106.734884 98.3709695,105.947044 99.0996311,105.151822 C100.464532,103.662039 101.83613,102.177625 103.201031,100.685829 C105.686383,97.967982 108.133561,95.2172524 110.458179,92.357809 C112.747301,89.5406431 115.1918,86.757031 116.984656,84.1385028 C126.907311,69.6339239 130.8895,56.2406424 133.548981,35.2286654 C134.188569,30.172799 133.948807,25.6289615 133.867771,20.5321596 C133.793431,15.9742295 136.535958,14.5300797 143.700683,14.1408572 C149.580205,13.8220973 153.090237,12.592691 157.312188,11.2887955 C159.810935,10.5184033 167.435762,6.60671692 168.370029,6.09603011 C170.359784,5.01425991 172.132548,3.97610947 173.579825,3.96738552 C175.386745,3.95329298 176.196443,5.51555169 176.290875,7.00197911 C176.422811,9.08633287 176.514563,12.7061024 175.652626,16.5909459 C174.582405,21.4293846 172.110447,28.8158887 170.602225,32.7839453 C165.644245,45.8383348 158.426612,56.9177554 149.346471,68.3548581 C143.994023,75.0957897 138.666355,81.8776568 132.731916,88.1219941 C129.824637,91.1834306 127.755184,93.1100822 124.42062,96.2641268 C122.625755,97.9639555 119.823623,100.801254 117.332913,103.048007 C116.222508,104.04992 115.287571,105.106189 115.154295,105.764512 C114.868992,107.171082 115.975379,107.740823 116.85205,107.740823 C123.323609,107.688479 140.254945,107.718006 147.98224,107.732099 C147.98224,107.724717 152.369613,107.723375 153.364155,107.723375 C154.510056,107.723375 155.437626,106.793938 155.437626,105.646403 L155.437626,101.275702 C155.42892,101.240807 155.376681,95.3078473 155.376681,95.3078473 C155.357929,93.1382672 154.657396,91.0163334 153.315265,89.3151625 C152.62076,88.4360564 151.831153,87.6535849 150.975244,86.9321811 C150.018206,86.1248799 148.953342,85.4450826 148.070643,84.5491997 C147.696936,84.1693722 147.34667,83.7264638 147.260275,83.1996712 C147.179238,82.7050902 147.34533,82.1937323 147.61523,81.7709561 C147.938707,81.2622825 148.405506,80.8522567 148.824085,80.424112 C149.410095,79.8275278 149.997444,79.2296014 150.587472,78.6377148 C151.307428,77.9163109 152.032741,77.1982625 152.750686,76.4748454 C153.504798,75.7158615 154.250872,74.9468115 154.984891,74.1670242 C159.305292,69.5903041 163.217829,64.6538887 167.151128,59.7463295 C169.803242,56.437938 172.412493,53.0986771 174.938029,49.6916378 C176.027003,48.2233294 177.691271,46.4778676 179.709824,47.0898865 C181.729717,47.7019054 182.193837,50.4090152 182.1858,52.2115182 L182.185131,105.646403 C182.185131,106.793938 183.112031,107.723375 184.257262,107.723375 C184.590785,107.723375 192.385053,107.73277 196.317682,107.738139 C196.98272,106.840242 197.789069,106.00073 198.566621,105.151822 C199.931522,103.662039 201.30312,102.177625 202.667351,100.685829 C205.152703,97.967982 207.600551,95.2172524 209.925169,92.357809 C212.214291,89.5406431 214.65745,86.757031 216.450306,84.1385028 C226.374301,69.6339239 230.355151,56.2406424 233.015971,35.2286654 C233.654889,30.172799 233.415797,25.6289615 233.333421,20.5321596 C233.259751,15.9742295 236.001608,14.5300797 243.167673,14.1408572 C249.047195,13.8220973 252.556558,12.592691 256.779178,11.2887955 C259.277925,10.5184033 266.902752,6.60671692 267.836349,6.09603011 C269.826774,5.01425991 271.598868,3.97610947 273.046145,3.96738552 C274.853065,3.95329298 275.662764,5.51555169 275.756525,7.00197911 C275.889801,9.08633287 275.980214,12.7061024 275.118277,16.5909459 C274.048725,21.4293846 271.576767,28.8158887 270.068545,32.7839453 C265.111905,45.8383348 257.893602,56.9177554 248.812121,68.3548581 C243.461013,75.0957897 238.132675,81.8776568 232.198906,88.1219941 C229.291627,91.1834306 227.221504,93.1100822 223.88761,96.2641268 C222.092075,97.9639555 219.290613,100.801254 216.799903,103.048007 C215.688828,104.04992 214.753891,105.106189 214.619946,105.764512 C214.335312,107.171082 215.442369,107.740823 216.31837,107.740823 C222.790599,107.688479 239.721265,107.718006 247.449229,107.732099 C247.449229,107.724717 251.836602,107.723375 252.830475,107.723375 C253.976376,107.723375 254.903946,106.793938 254.903946,105.646403 L254.903946,101.275702 C254.89524,101.240807 254.843001,95.3078473 254.843001,95.3078473 C254.825588,93.1382672 254.125055,91.0163334 252.781585,89.3151625 C252.08775,88.4360564 251.297473,87.6535849 250.442234,86.9321811 C249.484526,86.1248799 248.419662,85.4450826 247.537633,84.5491997 C247.163926,84.1693722 246.81366,83.7264638 246.727265,83.1996712 C246.644889,82.7050902 246.81232,82.1937323 247.08155,81.7709561 C247.405697,81.2622825 247.872496,80.8522567 248.290405,80.424112 C248.877085,79.8275278 249.463095,79.2296014 250.053793,78.6377148 C250.774418,77.9163109 251.499061,77.1982625 252.217676,76.4748454 C252.971788,75.7158615 253.717192,74.9468115 254.451881,74.1670242 C258.771612,69.5903041 262.685489,64.6538887 266.618118,59.7463295 C269.270232,56.437938 271.878814,53.0986771 274.405019,49.6916378 C275.493993,48.2233294 277.157591,46.4778676 279.177484,47.0898865 C281.196707,47.7019054 281.660827,50.4090152 281.652121,52.2115182 L281.650781,105.646403 C281.650781,106.793938 282.578351,107.723375 283.724922,107.723375 C284.170289,107.723375 297.980033,107.740823 298.012849,107.740823 Z" id="Logo"></path>
        </g>
    </g>
</svg>