<?xml version="1.0" encoding="UTF-8"?>
<svg width="103px" height="56px" viewBox="0 0 103 56" version="1.1" xmlns="http://www.w3.org/2000/svg" xmlns:xlink="http://www.w3.org/1999/xlink">
    <title>WELCOME!ENJOYYOURSTAY</title>
    <g id="🎨-Design-" stroke="none" stroke-width="1" fill="none" fill-rule="evenodd">
        <g id="NC644_MO020(360)" transform="translate(-39.000000, -19.000000)" fill="#000000" fill-rule="nonzero">
            <g id="Group-17" transform="translate(-52.000000, 16.000000)">
                <g id="Group-3" transform="translate(91.000000, 0.000000)">
                    <path d="M13.8966667,18 C14.1966667,18 14.5366667,17.88 14.6766667,17.48 L18.6166667,5.2 C18.8966667,4.42 19.5766667,4.46 19.5766667,4.08 L19.5766667,4.02 C19.5766667,3.9 19.4566667,3.8 19.2166667,3.8 L17.2166667,3.8 C16.9966667,3.8 16.8566667,3.88 16.8566667,4.06 L16.8566667,4.1 C16.8566667,4.48 17.7766667,4.48 17.5366667,5.2 L14.2766667,15.72 L10.7966667,5.2 C10.5566667,4.38 11.5166667,4.42 11.5166667,4.06 L11.5166667,4.02 C11.5166667,3.88 11.3966667,3.8 11.1766667,3.8 L8.31666667,3.8 C8.11666667,3.8 7.99666667,3.88 7.99666667,4.02 L7.99666667,4.06 C7.99666667,4.42 8.73666667,4.44 8.99666667,5.2 L9.77666667,7.5 L6.83666667,15.74 L2.93666667,5.22 C2.65666667,4.46 3.57666667,4.48 3.57666667,4.08 L3.57666667,4.04 C3.57666667,3.9 3.43666667,3.8 3.19666667,3.8 L0.376666667,3.8 C0.156666667,3.8 0.0166666667,3.88 0.0166666667,4.02 L0.0166666667,4.06 C0.0166666667,4.48 0.696666667,4.38 1.03666667,5.22 L5.81666667,17.5 C5.95666667,17.86 6.15666667,18 6.49666667,18 C6.77666667,18 7.07666667,17.86 7.19666667,17.48 L10.2766667,8.94 L13.2166667,17.5 C13.3366667,17.84 13.5966667,18 13.8966667,18 Z M29.92,18 C30.24,18 30.38,17.84 30.44,17.54 L30.92,15.52 C30.96,15.3 30.86,15.12 30.68,15.12 L30.56,15.12 C29.86,15.12 29.52,17.18 28.46,17.18 L23.76,17.18 C23.26,17.18 23.02,16.78 23.02,16.32 L23.04,11.14 L26.68,11.14 C27.44,11.14 27.42,12.28 27.84,12.28 L27.92,12.28 C28.08,12.28 28.18,12.14 28.18,11.94 L28.18,9.48 C28.18,9.26 28.08,9.14 27.92,9.14 L27.84,9.14 C27.42,9.14 27.44,10.32 26.68,10.32 L23.04,10.32 L23.04,5.3 C23.04,4.82 23.24,4.62 23.6,4.62 L27.84,4.62 C28.88,4.62 29.36,6.62 29.98,6.62 L30.08,6.62 C30.28,6.62 30.38,6.5 30.32,6.22 L29.84,4.24 C29.78,3.96 29.66,3.8 29.34,3.8 L20.86,3.8 C20.64,3.8 20.5,3.88 20.5,4.02 L20.5,4.08 C20.5,4.44 21.24,4.46 21.24,5.22 L21.24,16.58 C21.24,17.34 20.5,17.34 20.5,17.72 L20.5,17.76 C20.5,17.92 20.68,18 20.92,18 L29.92,18 Z M41.2033333,18 C41.5033333,18 41.6433333,17.84 41.7033333,17.54 L42.2033333,15.34 C42.2633333,15.1 42.1633333,14.98 41.9833333,14.98 L41.8233333,14.98 C41.1233333,14.98 40.8833333,17.18 39.7233333,17.18 L35.2833333,17.18 C34.8633333,17.18 34.6433333,16.86 34.6433333,16.4 L34.6433333,5.2 C34.6433333,4.46 35.4233333,4.48 35.4233333,4.08 L35.4233333,4.04 C35.4233333,3.88 35.2633333,3.8 35.0233333,3.8 L32.5033333,3.8 C32.2633333,3.8 32.1033333,3.88 32.1033333,4.04 L32.1033333,4.08 C32.1033333,4.48 32.8233333,4.46 32.8233333,5.2 L32.8233333,16.6 C32.8233333,17.3 32.1033333,17.34 32.1033333,17.72 L32.1033333,17.76 C32.1033333,17.9 32.2633333,18 32.5033333,18 L41.2033333,18 Z M48.8266667,18.2 C52.1466667,18.2 54.0266667,15.9 54.4666667,13.54 C54.5866667,12.96 53.9666667,12.88 53.7266667,13.28 C53.1066667,14.76 51.7266667,16.6 49.3266667,16.6 C46.5066667,16.6 43.8866667,13.8 43.8866667,9.76 C43.8866667,6.6 45.9466667,4.44 48.2666667,4.44 C51.9266667,4.44 51.8066667,8.18 53.3066667,8.18 C53.8666667,8.18 54.1866667,7.84 54.1866667,7.32 C54.1866667,5.88 51.8866667,3.62 48.7266667,3.62 C44.8866667,3.62 42.0866667,6.56 42.0866667,10.76 C42.0866667,14.72 45.3066667,18.2 48.8266667,18.2 Z M62.45,18.2 C66.31,18.2 69.25,14.92 69.25,10.98 C69.25,6.98 66.41,3.6 62.31,3.6 C58.19,3.6 55.33,6.72 55.33,10.86 C55.33,14.72 58.23,18.2 62.45,18.2 Z M62.89,17.34 C59.47,17.34 57.13,13.76 57.13,9.64 C57.13,6.7 58.99,4.46 61.69,4.46 C65.11,4.46 67.45,7.94 67.45,12.18 C67.45,14.88 65.57,17.34 62.89,17.34 Z M71.9933333,18 C72.2333333,18 72.3933333,17.92 72.3933333,17.76 L72.3933333,17.72 C72.3933333,17.34 71.4933333,17.3 71.6333333,16.54 L73.3533333,6.32 L77.4133333,17.58 C77.5333333,17.86 77.6933333,17.98 77.9533333,17.98 C78.2333333,17.98 78.3533333,17.84 78.4733333,17.56 L82.4933333,6.56 L84.2533333,16.54 C84.4133333,17.32 83.5933333,17.34 83.5933333,17.72 L83.5933333,17.76 C83.5933333,17.92 83.7533333,18 83.9933333,18 L86.4533333,18 C86.7133333,18 86.8733333,17.92 86.8733333,17.76 L86.8733333,17.72 C86.8733333,17.34 86.2133333,17.32 86.0533333,16.54 L83.9733333,5.4 C83.8133333,4.54 84.6533333,4.48 84.6533333,4.08 L84.6533333,4.02 C84.6533333,3.88 84.5133333,3.8 84.3533333,3.8 L82.9333333,3.8 C82.5533333,3.8 82.3333333,3.98 82.2133333,4.3 L78.1933333,15.62 L74.2933333,4.32 C74.1733333,3.98 73.8933333,3.8 73.5133333,3.8 L72.1933333,3.8 C71.9733333,3.8 71.8533333,3.9 71.8533333,4.06 L71.8533333,4.1 C71.8533333,4.52 72.6333333,4.54 72.5133333,5.24 L70.5733333,16.54 C70.4333333,17.3 69.7733333,17.34 69.7733333,17.72 L69.7733333,17.76 C69.7733333,17.92 69.9333333,18 70.1733333,18 L71.9933333,18 Z M97.4366667,18 C97.7566667,18 97.8966667,17.84 97.9566667,17.54 L98.4366667,15.52 C98.4766667,15.3 98.3766667,15.12 98.1966667,15.12 L98.0766667,15.12 C97.3766667,15.12 97.0366667,17.18 95.9766667,17.18 L91.2766667,17.18 C90.7766667,17.18 90.5366667,16.78 90.5366667,16.32 L90.5566667,11.14 L94.1966667,11.14 C94.9566667,11.14 94.9366667,12.28 95.3566667,12.28 L95.4366667,12.28 C95.5966667,12.28 95.6966667,12.14 95.6966667,11.94 L95.6966667,9.48 C95.6966667,9.26 95.5966667,9.14 95.4366667,9.14 L95.3566667,9.14 C94.9366667,9.14 94.9566667,10.32 94.1966667,10.32 L90.5566667,10.32 L90.5566667,5.3 C90.5566667,4.82 90.7566667,4.62 91.1166667,4.62 L95.3566667,4.62 C96.3966667,4.62 96.8766667,6.62 97.4966667,6.62 L97.5966667,6.62 C97.7966667,6.62 97.8966667,6.5 97.8366667,6.22 L97.3566667,4.24 C97.2966667,3.96 97.1766667,3.8 96.8566667,3.8 L88.3766667,3.8 C88.1566667,3.8 88.0166667,3.88 88.0166667,4.02 L88.0166667,4.08 C88.0166667,4.44 88.7566667,4.46 88.7566667,5.22 L88.7566667,16.58 C88.7566667,17.34 88.0166667,17.34 88.0166667,17.72 L88.0166667,17.76 C88.0166667,17.92 88.1966667,18 88.4366667,18 L97.4366667,18 Z M101.24,14.28 C101.6,11.18 101.82,5.88 101.86,4.22 C101.88,3.22 99.9,3.26 99.9,4.24 C99.94,5.84 100.12,11.18 100.44,14.28 C100.5,14.64 101.18,14.64 101.24,14.28 Z M100.88,18.22 C101.58,18.22 102.14,17.8 102.14,17.04 C102.14,16.26 101.58,15.82 100.88,15.82 C100.18,15.82 99.6,16.26 99.6,17.04 C99.6,17.8 100.18,18.22 100.88,18.22 Z M30.9316667,38 C31.2516667,38 31.3916667,37.84 31.4516667,37.54 L31.9316667,35.52 C31.9716667,35.3 31.8716667,35.12 31.6916667,35.12 L31.5716667,35.12 C30.8716667,35.12 30.5316667,37.18 29.4716667,37.18 L24.7716667,37.18 C24.2716667,37.18 24.0316667,36.78 24.0316667,36.32 L24.0516667,31.14 L27.6916667,31.14 C28.4516667,31.14 28.4316667,32.28 28.8516667,32.28 L28.9316667,32.28 C29.0916667,32.28 29.1916667,32.14 29.1916667,31.94 L29.1916667,29.48 C29.1916667,29.26 29.0916667,29.14 28.9316667,29.14 L28.8516667,29.14 C28.4316667,29.14 28.4516667,30.32 27.6916667,30.32 L24.0516667,30.32 L24.0516667,25.3 C24.0516667,24.82 24.2516667,24.62 24.6116667,24.62 L28.8516667,24.62 C29.8916667,24.62 30.3716667,26.62 30.9916667,26.62 L31.0916667,26.62 C31.2916667,26.62 31.3916667,26.5 31.3316667,26.22 L30.8516667,24.24 C30.7916667,23.96 30.6716667,23.8 30.3516667,23.8 L21.8716667,23.8 C21.6516667,23.8 21.5116667,23.88 21.5116667,24.02 L21.5116667,24.08 C21.5116667,24.44 22.2516667,24.46 22.2516667,25.22 L22.2516667,36.58 C22.2516667,37.34 21.5116667,37.34 21.5116667,37.72 L21.5116667,37.76 C21.5116667,37.92 21.6916667,38 21.9316667,38 L30.9316667,38 Z M35.295,38 C35.535,38 35.715,37.92 35.715,37.76 L35.715,37.72 C35.715,37.34 34.855,37.28 34.855,36.54 L34.855,25.84 L43.395,37.48 C43.655,37.88 43.835,38 44.035,38 L44.535,38 C44.855,38 45.035,37.8 45.035,37.46 L45.035,25.2 C45.035,24.48 45.835,24.46 45.835,24.1 L45.835,24.06 C45.835,23.9 45.675,23.8 45.435,23.8 L43.615,23.8 C43.355,23.8 43.195,23.9 43.195,24.06 L43.195,24.1 C43.195,24.46 44.015,24.48 44.015,25.2 L44.015,35.68 L35.715,24.2 C35.535,23.94 35.315,23.8 34.995,23.8 L33.475,23.8 C33.215,23.8 33.075,23.9 33.075,24.06 L33.075,24.14 C33.075,24.52 33.835,24.52 33.835,25.22 L33.835,36.54 C33.835,37.28 33.075,37.34 33.075,37.72 L33.075,37.76 C33.075,37.92 33.215,38 33.475,38 L35.295,38 Z M50.7983333,38.2 C53.2183333,38.18 55.0183333,36.84 55.0383333,32.9 L55.0583333,25.2 C55.0583333,24.48 55.8183333,24.46 55.8183333,24.08 L55.8183333,24.04 C55.8183333,23.88 55.6783333,23.8 55.4383333,23.8 L52.9183333,23.8 C52.6583333,23.8 52.4983333,23.88 52.4983333,24.04 L52.4983333,24.08 C52.4983333,24.46 53.2383333,24.48 53.2383333,25.2 L53.2383333,33.74 C53.2383333,36.16 52.2183333,37.38 50.9583333,37.38 C48.0783333,37.38 49.1183333,34.06 47.4983333,34.06 C46.9783333,34.06 46.6383333,34.42 46.6383333,34.98 C46.6383333,36.18 47.7583333,38.22 50.7983333,38.2 Z M64.2016667,38.2 C68.0616667,38.2 71.0016667,34.92 71.0016667,30.98 C71.0016667,26.98 68.1616667,23.6 64.0616667,23.6 C59.9416667,23.6 57.0816667,26.72 57.0816667,30.86 C57.0816667,34.72 59.9816667,38.2 64.2016667,38.2 Z M64.6416667,37.34 C61.2216667,37.34 58.8816667,33.76 58.8816667,29.64 C58.8816667,26.7 60.7416667,24.46 63.4416667,24.46 C66.8616667,24.46 69.2016667,27.94 69.2016667,32.18 C69.2016667,34.88 67.3216667,37.34 64.6416667,37.34 Z M78.565,38 C78.805,38 78.945,37.92 78.945,37.76 L78.945,37.72 C78.945,37.34 78.185,37.32 78.185,36.6 L78.185,32.26 L82.505,25.2 C82.965,24.4 83.565,24.46 83.565,24.08 L83.565,24.02 C83.565,23.88 83.425,23.8 83.165,23.8 L81.205,23.8 C80.965,23.8 80.845,23.88 80.845,24.04 L80.845,24.08 C80.845,24.46 81.945,24.48 81.525,25.2 L77.625,31.62 L73.725,25.2 C73.345,24.54 74.345,24.46 74.345,24.08 L74.345,24.04 C74.345,23.88 74.205,23.8 73.945,23.8 L71.025,23.8 C70.785,23.8 70.625,23.88 70.625,24.04 L70.625,24.08 C70.625,24.46 71.285,24.5 71.725,25.2 L76.365,32.38 L76.365,36.6 C76.365,37.32 75.645,37.34 75.645,37.72 L75.645,37.76 C75.645,37.92 75.785,38 76.045,38 L78.565,38 Z M8.515,58 L8.515,52.28 L13.955,43.76 L12.055,43.76 L9.975,47.08 C9.30833344,48.1066666 8.54833344,49.34 7.695,50.78 C7.08166656,49.74 6.32166656,48.5133334 5.415,47.1 L3.315,43.76 L1.395,43.76 L6.835,52.28 L6.835,58 L8.515,58 Z M19.6583333,58.32 C21.7116668,58.32 23.3649999,57.6333334 24.6183333,56.26 C25.8583333,54.9 26.4783333,53.1066666 26.4783333,50.88 C26.4783333,48.6666666 25.8583333,46.8666666 24.6183333,45.48 C23.3649999,44.12 21.7116668,43.44 19.6583333,43.44 C17.6049999,43.44 15.9583333,44.12 14.7183333,45.48 C13.4649999,46.8533334 12.8383333,48.6533334 12.8383333,50.88 C12.8383333,53.12 13.4649999,54.9133334 14.7183333,56.26 C15.9583333,57.6333334 17.6049999,58.32 19.6583333,58.32 Z M19.6583333,56.78 C18.1249999,56.78 16.8983333,56.2466666 15.9783333,55.18 C15.0583333,54.1266666 14.5983333,52.6933334 14.5983333,50.88 C14.5983333,49.0666666 15.0583333,47.6333334 15.9783333,46.58 C16.8983333,45.5133334 18.1249999,44.98 19.6583333,44.98 C21.1916668,44.98 22.4183333,45.5133334 23.3383333,46.58 C24.2583333,47.6333334 24.7183333,49.0666666 24.7183333,50.88 C24.7183333,52.6933334 24.2583333,54.1266666 23.3383333,55.18 C22.4183333,56.2466666 21.1916668,56.78 19.6583333,56.78 Z M33.4616667,58.3 C35.2483332,58.3 36.6283332,57.8133334 37.6016667,56.84 C38.5750001,55.8666666 39.0616667,54.4933334 39.0616667,52.72 L39.0616667,43.76 L37.3816667,43.76 L37.3816667,52.72 C37.3816667,55.4266666 36.0750001,56.78 33.4616667,56.78 C30.8483332,56.78 29.5416667,55.4266666 29.5416667,52.72 L29.5416667,43.76 L27.8616667,43.76 L27.8616667,52.72 C27.8616667,54.4933334 28.3483332,55.8666666 29.3216667,56.84 C30.2950001,57.8133334 31.6750001,58.3 33.4616667,58.3 Z M42.725,58 L42.725,51.92 L47.365,51.92 C48.245,51.92 48.8783334,52.1233334 49.265,52.53 C49.6516666,52.9366666 49.865,53.62 49.905,54.58 L49.965,56.1 C49.9783334,56.94 50.1316666,57.5733334 50.425,58 L52.165,58 C51.885,57.5866666 51.7116666,56.98 51.645,56.18 L51.505,53.88 C51.3983334,52.3866666 50.745,51.4533334 49.545,51.08 C50.265,50.84 50.835,50.4233334 51.255,49.83 C51.675,49.2366666 51.885,48.5066666 51.885,47.64 C51.885,46.4133334 51.4483334,45.46 50.575,44.78 C49.7016666,44.1 48.5316666,43.76 47.065,43.76 L41.045,43.76 L41.045,58 L42.725,58 Z M47.265,50.4 L42.725,50.4 L42.725,45.28 L47.065,45.28 C48.0383334,45.28 48.795,45.4866666 49.335,45.9 C49.875,46.3133334 50.145,46.9266666 50.145,47.74 C50.145,48.5933334 49.8883334,49.25 49.375,49.71 C48.8616666,50.17 48.1583334,50.4 47.265,50.4 Z M62.4316667,58.2 C65.2316667,58.2 67.5516667,56.72 67.5516667,54.32 C67.5516667,51.2488136 65.3385095,50.6389888 63.1628635,50.1688667 L62.7289013,50.0760171 C60.7843239,49.6603849 58.9916667,49.2325424 58.9916667,47.1 C58.9916667,45.58 60.0716667,44.4 62.0916667,44.4 C65.7716667,44.4 65.0116667,47.68 66.5116667,47.68 C67.0516667,47.68 67.3316667,47.36 67.3316667,46.88 C67.3316667,45.5 65.5516667,43.62 62.1516667,43.62 C58.9716667,43.62 57.1716667,45.3 57.1716667,47.52 C57.1716667,53.52 65.7116667,49.76 65.7116667,54.74 C65.7116667,56.32 64.4116667,57.42 62.5116667,57.42 C58.4916667,57.42 58.9916667,53.94 57.5516667,53.88 C57.0516667,53.88 56.7916667,54.22 56.7916667,54.68 C56.7916667,55.9 58.5116667,58.2 62.4316667,58.2 Z M74.875,58 C75.135,58 75.295,57.92 75.295,57.76 L75.295,57.72 C75.295,57.34 74.515,57.32 74.515,56.6 L74.515,44.66 L77.275,44.66 C78.275,44.66 78.535,46.82 79.115,46.82 L79.315,46.82 C79.495,46.82 79.615,46.7 79.555,46.44 L79.115,44.24 C79.055,43.96 78.915,43.8 78.595,43.8 L68.655,43.8 C68.335,43.8 68.195,43.96 68.155,44.24 L67.835,46.42 C67.795,46.7 67.895,46.82 68.095,46.82 L68.275,46.82 C68.855,46.82 68.975,44.66 69.995,44.66 L72.715,44.66 L72.715,56.6 C72.715,57.32 71.975,57.34 71.975,57.72 L71.975,57.76 C71.975,57.92 72.135,58 72.375,58 L74.875,58 Z M80.1383333,58 C80.3983333,58 80.5583333,57.92 80.5583333,57.76 L80.5583333,57.72 C80.5583333,57.34 79.5983333,57.3 79.8783333,56.6 L80.7583333,54.24 L87.2383333,54.24 L88.1983333,56.6 C88.4583333,57.3 87.5183333,57.34 87.5183333,57.72 L87.5183333,57.76 C87.5183333,57.92 87.6583333,58 87.8983333,58 L90.7183333,58 C90.9583333,58 91.0983333,57.92 91.0983333,57.76 L91.0983333,57.72 C91.0983333,57.34 90.4583333,57.34 90.1383333,56.6 L84.9783333,44.46 C84.7783333,43.98 84.5183333,43.8 84.0383333,43.8 L82.8783333,43.8 C82.6783333,43.8 82.5983333,43.9 82.5983333,44.02 L82.5983333,44.08 C82.5983333,44.4 83.4583333,44.66 83.2183333,45.26 L78.7783333,56.6 C78.4983333,57.36 77.8383333,57.34 77.8383333,57.72 L77.8383333,57.76 C77.8383333,57.92 77.9783333,58 78.2383333,58 L80.1383333,58 Z M86.8983333,53.38 L81.0983333,53.38 L83.8983333,45.96 L86.8983333,53.38 Z M97.1416667,58 C97.3816667,58 97.5216667,57.92 97.5216667,57.76 L97.5216667,57.72 C97.5216667,57.34 96.7616667,57.32 96.7616667,56.6 L96.7616667,52.26 L101.081667,45.2 C101.541667,44.4 102.141667,44.46 102.141667,44.08 L102.141667,44.02 C102.141667,43.88 102.001667,43.8 101.741667,43.8 L99.7816667,43.8 C99.5416667,43.8 99.4216667,43.88 99.4216667,44.04 L99.4216667,44.08 C99.4216667,44.46 100.521667,44.48 100.101667,45.2 L96.2016667,51.62 L92.3016667,45.2 C91.9216667,44.54 92.9216667,44.46 92.9216667,44.08 L92.9216667,44.04 C92.9216667,43.88 92.7816667,43.8 92.5216667,43.8 L89.6016667,43.8 C89.3616667,43.8 89.2016667,43.88 89.2016667,44.04 L89.2016667,44.08 C89.2016667,44.46 89.8616667,44.5 90.3016667,45.2 L94.9416667,52.38 L94.9416667,56.6 C94.9416667,57.32 94.2216667,57.34 94.2216667,57.72 L94.2216667,57.76 C94.2216667,57.92 94.3616667,58 94.6216667,58 L97.1416667,58 Z" id="WELCOME!ENJOYYOURSTAY"></path>
                </g>
            </g>
        </g>
    </g>
</svg>