<?xml version="1.0" encoding="UTF-8"?>
<svg width="400px" height="832px" viewBox="0 0 400 832" version="1.1" xmlns="http://www.w3.org/2000/svg" xmlns:xlink="http://www.w3.org/1999/xlink">
    <!-- Generator: Sketch 54.1 (76490) - https://sketchapp.com -->
    <title>Fill 34</title>
    <desc>Created with Sketch.</desc>
    <g id="ðŸ“-Break-point" stroke="none" stroke-width="1" fill="none" fill-rule="evenodd" fill-opacity="0.3">
        <g id="NC644_PC100(1920)" transform="translate(-960.000000, -2518.000000)" fill="#FFFFFF">
            <path d="M1274.61485,2641.24341 C1261.18785,2600.68392 1253.58312,2553.12909 1212.64544,2530.499 C1197.18094,2521.94166 1181.99787,2518 1160.00164,2518 C1138.00833,2518 1122.82527,2521.94166 1107.35783,2530.499 C1066.42015,2553.12909 1058.8037,2600.68392 1045.39136,2641.24341 C1034.58526,2673.86391 974.483321,2857.17581 969.704716,2870.54227 C957.075129,2905.78859 956.75851,2947.82217 968.836945,2983.4817 C977.130609,3007.97565 1053.85799,3250.21896 1061.22818,3271.3984 C1070.72382,3298.65884 1081.78204,3322.2443 1108.33408,3336.6687 C1124.12986,3345.23778 1142.04522,3349.75676 1160.00164,3350 C1177.96098,3349.75676 1195.87342,3345.23778 1211.6604,3336.6687 C1238.21244,3322.2443 1249.27065,3298.65884 1258.76337,3271.3984 C1266.14822,3250.21896 1342.86387,3007.97565 1351.15753,2983.4817 C1363.24769,2947.82217 1362.91935,2905.78859 1350.29856,2870.54227 C1345.51116,2857.17581 1285.40921,2673.86391 1274.61485,2641.24341 Z" id="Fill-34" transform="translate(1160.000000, 2934.000000) rotate(-360.000000) translate(-1160.000000, -2934.000000) "></path>
        </g>
    </g>
</svg>