<?xml version="1.0" encoding="UTF-8"?>
<svg width="280px" height="582px" viewBox="0 0 280 582" version="1.1" xmlns="http://www.w3.org/2000/svg" xmlns:xlink="http://www.w3.org/1999/xlink">
    <!-- Generator: Sketch 54.1 (76490) - https://sketchapp.com -->
    <title>Fill 34</title>
    <desc>Created with Sketch.</desc>
    <g id="🎨-Design" stroke="none" stroke-width="1" fill="none" fill-rule="evenodd">
        <g id="NC644_PC100(1440)" transform="translate(-580.000000, -3312.000000)" fill="#FFBB00" stroke="#000000">
            <g id="Group-9" transform="translate(164.000000, 2910.000000)">
                <g id="Group-22" transform="translate(0.000000, 402.000000)">
                    <g id="Group-2" transform="translate(416.000000, 0.000000)">
                        <path d="M219.755739,86.3683114 L219.755758,86.3683701 C218.562939,82.7676468 217.52112,79.3925523 215.738906,73.4469489 C215.701179,73.3210878 215.010742,71.016156 214.808504,70.3421694 C214.45227,69.1549719 214.156675,68.1738883 213.871292,67.2327941 C209.272571,52.06778 205.821886,42.8700055 200.941323,34.1736722 C194.751015,23.1435959 186.956314,14.8963823 176.609848,9.18085158 C165.566908,3.07438913 154.938822,0.5 140.001145,0.5 C125.065513,0.5 114.437515,3.0743681 103.392254,9.18095543 C93.04567,14.8965515 85.2498115,23.144114 79.0587851,34.173702 C74.1765401,42.8716381 70.7227418,52.0773126 66.1287005,67.2327428 C65.841288,68.180897 65.5436186,69.1693382 65.1848985,70.3654685 C64.9812928,71.0443793 64.2862924,73.3658533 64.2480561,73.4934832 C62.4747501,79.412645 61.4361663,82.7795393 60.2485532,86.3684653 C58.6577516,91.1673405 55.6272164,100.363671 50.1502654,117.005609 C49.1219078,120.130315 48.0326997,123.440285 46.5074083,128.075717 C45.5537356,130.973988 45.5537356,130.973988 44.5794925,133.934788 C43.5958922,136.924011 43.5958922,136.924011 42.5954334,139.964395 C39.3032026,149.969355 36.7847629,157.621314 34.3204838,165.106055 C34.2769625,165.238242 34.2769625,165.238242 34.2334412,165.370428 C17.9319546,214.882389 8.79649997,242.495066 7.2639593,246.778864 C-1.5369223,271.32326 -1.76090519,300.610449 6.65941622,325.452944 C9.03104278,332.452336 15.2595152,351.903448 38.9061974,425.981962 C38.9250955,426.041165 38.9250955,426.041165 38.9439936,426.100367 C60.2329739,492.792774 69.1477412,520.579974 71.3318652,526.852098 C79.6855296,550.817624 87.9990222,563.509202 104.072149,572.23494 C114.96329,578.13923 127.40789,581.329482 139.994379,581.500046 C152.596438,581.329482 165.038878,578.139247 175.923727,572.23508 C191.997592,563.508941 200.311855,550.815547 208.662268,526.85195 C210.85268,520.574256 219.855935,492.514447 241.050303,426.114916 C241.071521,426.048443 241.071521,426.048443 241.092739,425.98197 C264.965046,351.192649 270.968784,332.441439 273.336782,325.452756 C281.761503,300.621389 281.536965,271.33409 272.738308,246.778798 C271.200093,242.487038 261.963284,214.572177 245.771616,165.391887 C245.724563,165.248969 245.724563,165.248969 245.67751,165.106049 C246.737108,168.324488 222.156171,93.6174175 219.755739,86.3683114 Z M246.627628,164.794157 C246.627538,164.793883 246.627447,164.793609 246.627357,164.793334 C246.627447,164.793609 246.627538,164.793883 246.627628,164.794157 Z" id="Fill-34"></path>
                    </g>
                </g>
            </g>
        </g>
    </g>
</svg>