<?xml version="1.0" encoding="UTF-8"?>
<svg width="746px" height="1649px" viewBox="0 0 746 1649" version="1.1" xmlns="http://www.w3.org/2000/svg" xmlns:xlink="http://www.w3.org/1999/xlink">
    <title>Group 4</title>
    <g id="🎨-Design-" stroke="none" stroke-width="1" fill="none" fill-rule="evenodd">
        <g id="NC644_PC100(1440)" transform="translate(-347.000000, -384.000000)" stroke="#000000">
            <g id="+-ABOUT" transform="translate(230.000000, 300.000000)">
                <g id="Group-4" transform="translate(117.939131, 84.939131)">
                    <g id="Door" transform="translate(0.060869, 0.060869)">
                        <path d="M517.617195,0.5 C541.936798,0.5 564.564419,9.45633469 585.5981,24.3892432 C611.807731,43.0086553 658.986271,69.808269 680.186714,76.034879 C697.797959,81.1914849 719.774263,85.3723691 743.500041,86.1446589 L743.500041,86.1446589 L743.500041,1646.00444 L0.5,1646.00444 L0.5,86.1446695 C24.241823,85.3724058 46.2221968,81.1914936 63.8258338,76.0347624 C85.0258827,69.8082681 132.192305,43.0086584 158.401855,24.3893039 C179.431644,9.45630538 202.079374,0.5 226.394956,0.5 L226.394956,0.5 Z" id="Fill-12"></path>
                    </g>
                    <path d="M232.22287,13.5 L232.22287,13.5 L511.910808,13.5 C535.805618,13.5 558.037917,22.3110415 578.704161,37.0013789 C604.458698,55.3203001 650.818104,81.6872675 671.650427,87.8133879 C688.955728,92.8867303 707.352729,96.999164 730.621779,97.7598099 L730.621779,97.7598099 L730.621779,1633.12618 L13.5,1633.12618 L13.5,97.7598205 C36.7848438,96.9992008 55.1858141,92.886739 72.4836486,87.813271 C93.3155771,81.6872667 139.663077,55.3203032 165.417532,37.0014397 C186.079954,22.3110121 208.33201,13.5 232.22287,13.5 L232.22287,13.5 Z" id="Fill-12"></path>
                </g>
            </g>
        </g>
    </g>
</svg>